<?xml version="1.0" encoding="UTF-8"?><svg xmlns="http://www.w3.org/2000/svg" xmlns:xlink="http://www.w3.org/1999/xlink" fill="#000000" height="1000" preserveAspectRatio="xMidYMid meet" version="1" viewBox="500.0 500.0 1000.0 1000.0" width="1000" zoomAndPan="magnify"><g><g id="change1_1"><path d="M 1058.601562 500 L 935.613281 612.800781 L 935.613281 956.558594 L 1001 856.140625 L 1058.601562 500" fill="#51c2c6"/></g><g id="change2_1"><path d="M 898.980469 897.570312 L 687.886719 605.011719 L 680.675781 771.730469 L 923.757812 1014.808594 L 898.980469 897.570312" fill="#af96c6"/></g><g id="change3_1"><path d="M 500 941.398438 L 612.796875 1064.390625 L 956.5625 1064.390625 L 856.140625 999 L 500 941.398438" fill="#ed4f9b"/></g><g id="change4_1"><path d="M 605.007812 1312.109375 L 771.734375 1319.320312 L 1014.808594 1076.238281 L 897.566406 1101.019531 L 605.007812 1312.109375" fill="#e92949"/></g><g id="change5_1"><path d="M 941.394531 1500 L 1064.390625 1387.199219 L 1064.390625 1043.441406 L 999 1143.859375 L 941.394531 1500" fill="#ed654c"/></g><g id="change6_1"><path d="M 1101.019531 1102.429688 L 1312.109375 1394.988281 L 1319.320312 1228.269531 L 1076.238281 985.191406 L 1101.019531 1102.429688" fill="#f7b44b"/></g><g id="change7_1"><path d="M 1500 1058.601562 L 1387.199219 935.609375 L 1043.441406 935.609375 L 1143.859375 1001 L 1500 1058.601562" fill="#dbd342"/></g><g id="change8_1"><path d="M 1394.988281 687.890625 L 1228.269531 680.679688 L 985.1875 923.761719 L 1102.429688 898.980469 L 1394.988281 687.890625" fill="#5ec09b"/></g></g></svg>